<?xml version="1.0" encoding="UTF-8"?> <!-- Generator: Adobe Illustrator 25.2.0, SVG Export Plug-In . SVG Version: 6.00 Build 0) --> <svg xmlns="http://www.w3.org/2000/svg" xmlns:xlink="http://www.w3.org/1999/xlink" version="1.1" id="Lag_1" x="0px" y="0px" viewBox="0 0 706.3 230.6" style="enable-background:new 0 0 706.3 230.6;" xml:space="preserve"> <style type="text/css"> .st0{fill:#FFFFFF;} .st1{fill:#E72429;} .st2{fill:#30336C;} .st3{fill:#0EB334;} </style> <g> <g> <path class="st0" d="M184.8,183.7c-6.4,0-11.7,0-17.5,0c0-26.6,0-53,0-79.8l17.7-0.2c0,11.4,0,22.6,0,35.9 c11.2-13,21.1-24.6,31-36.1c5.6,0,10.9,0,17.6,0c-9.4,11.1-18.1,21.4-27.2,32.1c9.3,15.6,18.5,31.2,28.5,48 c9.9-27.8,19.3-54.4,28.7-81.1c7.2,0,13.9,0,21.3,0c9.6,26.8,19.3,53.7,29.1,81.1c-6.2,0-11.8,0-18.1,0c-2.2-6.4-4.6-13.1-7-20.1 c-10.2,0-20.4,0-31,0c-2.4,6.7-4.7,13.4-7.2,20.2c-11.5,0-22.7,0-34.7,0c-6.9-11.5-13.9-23.3-21.3-35.6c0,0-6.5,6.3-9.9,9.9 C184.8,166.3,184.8,174.7,184.8,183.7z M284.2,149c-3.8-11.8-7.3-22.8-11.1-34.7c-3.8,12.1-7.3,23.1-11,34.7 C269.6,149,276.3,149,284.2,149z"></path> <path class="st0" d="M546.4,124.4c0,20.8,0,39.7,0,59l-16,0.4c0-26.6,0-52.9,0-79.9c7.1,0,14.6,0,23.3,0 c8.8,16.8,18,34.3,28.2,53.6c0-19.1,0-36.3,0-53.9c5.4,0,10.2,0,15.5,0c0,26.5,0,53.1,0,80c-6.4,0-12.7,0-19.6,0 C567.8,164.7,557.6,145.4,546.4,124.4z"></path> <path class="st0" d="M367.2,183.7c0-26.9,0-53.2,0-80.5c18,0.3,35.9-1.1,53.7,1c6.6,0.8,12,5.5,12,12.3l-0.1,54.5 c0,8.6-7.9,12.2-15.4,12.5C400.7,184.1,384.1,183.7,367.2,183.7z M385.5,170.4c8.2-0.2,16.1,0.4,24.7-0.2c3-0.2,5.3-2.7,5.4-5.7 l0-42.7c-0.1-2.6-2.2-4.6-4.8-4.6h-25.3V170.4z"></path> <path class="st0" d="M150.1,109.9c0.1,1.8-0.2,3.7-0.7,5.9l-35.8,0c-2,0-3.8,1.5-4.1,3.5c-0.5,3.3-0.5,6.2-0.2,9.2 c0.2,2.1,1.6,4,3.6,4.7c5.4,2.1,11.3,1.9,16.9,2.6c22,2.6,23.3,3.8,23.2,26.3c0,3.3,0,6.7-0.3,10c-0.5,5.7-3.6,10.3-8.9,11.4 c-15.4,3-31,3.4-46.4-0.5c-0.2,0-0.4-0.1-0.6-0.2c-1.9-0.8-3.2-2.7-3.4-4.7c-0.3-2.1,0-4.1,0.7-6.2c12.4-1,24.9,0.5,37.3-0.6 c2.5-0.2,4.5-2.1,4.9-4.5c0.6-3.5,0.4-6.8-0.2-10.2c-0.3-1.6-1.4-2.8-3-3.3c-6.1-1.6-12.2-2-18.1-3c-3.8-0.7-7.6-1.1-11.3-2.1 c-3.7-1.1-7.8-2.9-8.8-6.8c-2.7-10.5-3.4-21.3,0.8-31.7c1.4-3.5,4.6-5.8,8.2-6.5c13.7-2.3,27.5-2.7,41.2,0.2 c0.2,0,0.5,0.1,0.7,0.2C148.3,104.6,150,107.1,150.1,109.9z"></path> <path class="st0" d="M519.6,183.7c-6.7,0-12.2,0-18.2,0c-2.2-6.6-4.4-13.1-6.8-20c-10.2,0-20.4,0-31.3,0 c-2.2,6.4-4.5,13.1-6.8,19.9c-5.2,0-10,0-15.8,0c9.5-27,18.9-53.7,28.4-80.8c7,0,14.1,0,21.6,0 C500.1,129.4,509.7,156.1,519.6,183.7z M478.6,114.2c-3.9,12.5-7.3,23.5-10.8,34.8c7.7,0,14.5,0,22.1,0 C486.2,137.5,482.6,126.5,478.6,114.2z"></path> <path class="st0" d="M631.1,103.7c4.2,0,7.7,0,11.6,0c0.1,0.2,15.2,42.5,15.2,42.5l-9.4-0.1l-4-9.9l-16.4-0.2l-3.3,10l-8.5-0.3 L631.1,103.7z M637,110l-7,18.9h13L637,110z"></path> <path class="st0" d="M705.6,177.3c-0.6,2.9-1.9,6.8-9.4,6.8c-6.4,0-11.5,0.1-19.2-1.1c-3-0.5-2.9-3.1-1.9-6.3l19.2,0 c0.8,0,1.4-0.6,1.6-1.3c0.5-2.5,0.6-4.5,0.5-6.5c0-0.5-0.3-0.9-0.7-1.1c-4.8-2.3-10.6-1.5-15.4-3.1c-2.8-0.9-5.4-3.4-5.4-6.3 c0-13.2,1.4-18.8,10.3-18.8c12.6,0,18,0.4,19.1,7.7l-18.6,0c-0.8,0-1.4,0.6-1.5,1.3c-0.2,2-0.4,3.7-0.6,5.6 c-0.1,1,0.4,2.1,1.3,2.3c3.8,0.8,7.4,1.3,11,1.8c7.4,1,10.5,4.2,10.1,11.4C706.1,172,706.2,174.4,705.6,177.3z"></path> <path class="st0" d="M675.9,104.2c2.7-1.2,5-0.8,8.2-0.3c-9.7,26.7-19.4,53.2-28.9,79.2c-2.9,1.5-5.1,0.7-8.4,1 C656.7,156.9,666.3,130.4,675.9,104.2z"></path> <path class="st0" d="M316.3,143c12.4,0,24.1,0,36,0c0,4.6,0,8.8,0,13.5c-12,0-23.8,0-36,0C316.3,151.9,316.3,147.7,316.3,143z"></path> </g> <path class="st1" d="M146.7,63.1V38.6C87,38.6,38.6,87,38.6,146.7h24.5C63.1,100.6,100.6,63.1,146.7,63.1z"></path> <path class="st2" d="M24.5,146.7c0-32.1,12.4-61.3,32.7-83.1L40,46.1C15.2,72.3,0,107.8,0,146.7c0,31.2,9.7,60.1,26.3,83.9H58 C37.3,208.7,24.5,179.2,24.5,146.7z"></path> <path class="st3" d="M63.9,57c21.8-20.1,50.9-32.5,82.9-32.5c16.9,0,33.1,3.5,47.8,9.7l0,0V8c-15-5.2-31-8-47.8-8 C107.9,0,72.7,15.1,46.4,39.7L63.9,57z"></path> <g> <rect x="92.7" y="201.8" class="st2" width="202.4" height="28.5"></rect> <g> <path class="st0" d="M126.9,220.3h-8.5l-1.5,3.5h-2.3l6.7-15.7h2.6l6.8,15.7h-2.3L126.9,220.3z M119,218.6h7.3l-3.6-8.7 L119,218.6z"></path> <path class="st0" d="M133.6,208.1h11v1.7h-8.9v5.1h8.7v1.7h-8.7v7.2h-2.1V208.1z"></path> <path class="st0" d="M148.2,208.1h11v1.7h-8.9v5.1h8.7v1.7h-8.7v7.2h-2.1V208.1z"></path> <path class="st0" d="M162.8,208.1h2.1v9.6c0,2.9,1.7,4.7,4.8,4.7c3.1,0,4.8-1.8,4.8-4.7v-9.6h2.1v9.6c0,3.9-2.3,6.4-6.8,6.4 s-6.8-2.5-6.8-6.4V208.1z"></path> <path class="st0" d="M189.1,207.8c3,0,5,1.2,6.5,2.9l-1.7,1c-1.1-1.3-2.8-2.2-4.9-2.2c-3.7,0-6.5,2.6-6.5,6.4 c0,3.7,2.8,6.4,6.5,6.4c2,0,3.7-0.9,4.5-1.7v-3.2h-5.8v-1.7h7.8v5.7c-1.6,1.6-3.8,2.7-6.6,2.7c-4.8,0-8.6-3.3-8.6-8.2 S184.3,207.8,189.1,207.8z"></path> <path class="st0" d="M203.9,209.8h-5.3v-1.7h12.7v1.7h-5.3v14h-2.1V209.8z"></path> <path class="st0" d="M216.9,211.1v12.7h-2.1v-15.7h2.1l9.7,12.4v-12.4h2.1v15.7h-2L216.9,211.1z"></path> <path class="st0" d="M233.3,208.1h2.1v15.7h-2.1V208.1z"></path> <path class="st0" d="M242.2,211.1v12.7h-2.1v-15.7h2.1l9.7,12.4v-12.4h2.1v15.7h-2L242.2,211.1z"></path> <path class="st0" d="M266.6,207.8c3,0,5,1.2,6.5,2.9l-1.7,1c-1.1-1.3-2.8-2.2-4.9-2.2c-3.7,0-6.5,2.6-6.5,6.4 c0,3.7,2.8,6.4,6.5,6.4c2,0,3.7-0.9,4.5-1.7v-3.2h-5.8v-1.7h7.8v5.7c-1.6,1.6-3.8,2.7-6.6,2.7c-4.8,0-8.6-3.3-8.6-8.2 S261.8,207.8,266.6,207.8z"></path> </g> </g> <g> <rect x="298.1" y="201.8" class="st1" width="202.4" height="28.5"></rect> <g> <path class="st0" d="M334.3,210.8l-5.8,13.1h-0.9l-5.8-13.1v13.1h-2.1v-15.7h3l5.3,12l5.3-12h3v15.7h-2.1V210.8z"></path> <path class="st0" d="M348.9,207.9c5,0,8.4,3.5,8.4,8.1c0,4.6-3.4,8.1-8.4,8.1c-5,0-8.4-3.5-8.4-8.1 C340.5,211.3,343.8,207.9,348.9,207.9z M348.9,209.6c-3.8,0-6.2,2.7-6.2,6.4c0,3.7,2.4,6.4,6.2,6.4c3.8,0,6.2-2.7,6.2-6.4 C355.1,212.3,352.7,209.6,348.9,209.6z"></path> <path class="st0" d="M361.4,208.1h7.6c3,0,4.8,1.7,4.8,4c0,2-1.4,3.3-3,3.6c1.8,0.3,3.3,2,3.3,3.9c0,2.5-1.8,4.2-4.9,4.2h-7.7 V208.1z M368.6,214.9c1.9,0,2.9-1.1,2.9-2.5c0-1.4-1-2.5-2.9-2.5h-5.1v5.1H368.6z M368.7,222.1c2,0,3.2-1,3.2-2.7 c0-1.4-1.1-2.7-3.2-2.7h-5.2v5.4H368.7z"></path> <path class="st0" d="M378.2,208.1h2.1v15.7h-2.1V208.1z"></path> <path class="st0" d="M385,208.1h2.1v14h7.9v1.7h-10V208.1z"></path> <path class="st0" d="M394.7,208.1h2.4l5.7,13.6l5.7-13.6h2.4l-6.9,15.7h-2.6L394.7,208.1z"></path> <path class="st0" d="M423.3,220.3h-8.6l-1.5,3.5h-2.3l6.8-15.7h2.6l6.9,15.7h-2.3L423.3,220.3z M415.3,218.6h7.4l-3.7-8.7 L415.3,218.6z"></path> <path class="st0" d="M435.6,217.6h-3.4v6.2h-2.1v-15.7h6.8c3.1,0,5.3,1.8,5.3,4.7c0,2.8-2.1,4.4-4.4,4.6l4.6,6.4H440L435.6,217.6 z M436.7,209.9h-4.5v6h4.5c2,0,3.4-1.2,3.4-3S438.7,209.9,436.7,209.9z"></path> <path class="st0" d="M460.9,210.8l-5.8,13.1h-0.9l-5.8-13.1v13.1h-2.1v-15.7h3l5.3,12l5.3-12h3v15.7h-2.1V210.8z"></path> <path class="st0" d="M467.7,208.1h11.1v1.7h-9v5.1h8.8v1.7h-8.8v5.4h9v1.7h-11.1V208.1z"></path> </g> </g> <g> <rect x="503.6" y="201.8" class="st3" width="202.4" height="28.5"></rect> <g> <path class="st0" d="M544,207.8c3.1,0,5.2,1.2,6.8,2.9l-1.7,1c-1.1-1.3-3-2.2-5.1-2.2c-3.8,0-6.7,2.6-6.7,6.4 c0,3.7,2.9,6.4,6.7,6.4c2.1,0,3.8-0.9,4.7-1.7v-3.2h-6v-1.7h8.2v5.7c-1.6,1.6-4,2.7-6.9,2.7c-5,0-9-3.3-9-8.2 S539,207.8,544,207.8z"></path> <path class="st0" d="M560.8,217.6h-3.5v6.2h-2.2v-15.7h7c3.2,0,5.5,1.8,5.5,4.7c0,2.8-2.1,4.4-4.5,4.6l4.7,6.4h-2.6L560.8,217.6z M561.9,209.8h-4.6v6h4.6c2.1,0,3.5-1.2,3.5-3S564,209.8,561.9,209.8z"></path> <path class="st0" d="M571.9,208.1h11.5v1.7H574v5.1h9.1v1.7H574v5.4h9.3v1.7h-11.5V208.1z"></path> <path class="st0" d="M587.5,208.1H599v1.7h-9.3v5.1h9.1v1.7h-9.1v5.4h9.3v1.7h-11.5V208.1z"></path> <path class="st0" d="M605.4,211.1v12.7h-2.2v-15.7h2.2l10.1,12.4v-12.4h2.2v15.7h-2.1L605.4,211.1z"></path> <path class="st0" d="M622.6,208.1h2.2v14h8.1v1.7h-10.3V208.1z"></path> <path class="st0" d="M636.7,208.1h2.2v15.7h-2.2V208.1z"></path> <path class="st0" d="M645.9,211.1v12.7h-2.2v-15.7h2.2l10.1,12.4v-12.4h2.2v15.7h-2.1L645.9,211.1z"></path> <path class="st0" d="M663.1,208.1h11.5v1.7h-9.3v5.1h9.1v1.7h-9.1v5.4h9.3v1.7h-11.5V208.1z"></path> </g> </g> </g> </svg> 